<?xml version="1.0" encoding="utf-8"?>
<!-- Generator: Adobe Illustrator 24.0.2, SVG Export Plug-In . SVG Version: 6.00 Build 0)  -->
<svg version="1.1" id="Capa_1" xmlns="http://www.w3.org/2000/svg" xmlns:xlink="http://www.w3.org/1999/xlink" x="0px" y="0px"
	 viewBox="0 0 512 512" style="enable-background:new 0 0 512 512;" xml:space="preserve">
<style type="text/css">
	.st0{fill:#D1D3D4;}
</style>
<path class="st0" d="M373.4,0H138.6C62.2,0,0,62.2,0,138.6v234.8C0,449.8,62.2,512,138.6,512h234.8c76.4,0,138.6-62.2,138.6-138.6
	V138.6C512,62.2,449.8,0,373.4,0z M256,396c-77.2,0-140-62.8-140-140s62.8-140,140-140s140,62.8,140,140S333.2,396,256,396z
	 M399.3,149c-22.8,0-41.4-18.6-41.4-41.4s18.6-41.4,41.4-41.4s41.4,18.6,41.4,41.4S422.2,149,399.3,149z"/>
<path class="st0" d="M256,146c-60.6,0-110,49.3-110,110c0,60.6,49.3,110,110,110c60.6,0,110-49.3,110-110
	C366,195.4,316.6,146,256,146z"/>
<path class="st0" d="M399.3,96.3c-6.3,0-11.4,5.1-11.4,11.4s5.1,11.4,11.4,11.4c6.3,0,11.4-5.1,11.4-11.4S405.6,96.3,399.3,96.3z"/>
<g>
	<path class="st0" d="M-118.1,359h-50.2c-16.3,0-29.6,13.3-29.6,29.6v50.2c0,16.3,13.3,29.6,29.6,29.6h50.2
		c16.3,0,29.6-13.3,29.6-29.6v-50.2C-88.5,372.3-101.8,359-118.1,359z M-143.3,443.7c-16.5,0-29.9-13.4-29.9-29.9
		s13.4-29.9,29.9-29.9s29.9,13.4,29.9,29.9S-126.7,443.7-143.3,443.7z M-112.6,390.9c-4.9,0-8.8-4-8.8-8.8s4-8.8,8.8-8.8
		s8.8,4,8.8,8.8S-107.7,390.9-112.6,390.9z"/>
	<path class="st0" d="M-143.3,390.2c-13,0-23.5,10.6-23.5,23.5c0,13,10.6,23.5,23.5,23.5c13,0,23.5-10.6,23.5-23.5
		C-119.7,400.8-130.3,390.2-143.3,390.2z"/>
	<path class="st0" d="M-112.6,379.6c-1.3,0-2.4,1.1-2.4,2.4c0,1.3,1.1,2.4,2.4,2.4c1.3,0,2.4-1.1,2.4-2.4S-111.3,379.6-112.6,379.6z
		"/>
</g>
</svg>
