<svg id="Layer_1" data-name="Layer 1" xmlns="http://www.w3.org/2000/svg" viewBox="0 0 903.34 632.07"><path d="M1367.09,614.58l-.57-.42,8.87-12.64c14-20.24,9.51-48.67-10.16-63.17l-13.93-10.24a41.76,41.76,0,0,0-9.52-5.33h-.07a66.68,66.68,0,0,0-28.62-11.42c4.41-77.94-3.85-358.43-379.29-358.43S550.06,433.42,554.47,511.36a66.68,66.68,0,0,0-28.62,11.42h-.08a41.91,41.91,0,0,0-9.51,5.33l-13.93,10.24c-19.64,14.5-24.17,42.93-10.16,63.17L501,614.16l-.57.42c-19.68,14.57-24.28,42.93-10.17,63.14l59,84.52a43.36,43.36,0,0,0,61.47,10.47l1.1-.88a43.17,43.17,0,0,0,56.67,4.72l13.93-10.23c19.64-14.5,24.17-42.93,10-63.14l-.69-1A138.92,138.92,0,1,1,925.35,562.93c.76,2.21,1.48,4.45,2.13,6.7a7.52,7.52,0,0,0,10.73,0c.65-2.25,1.37-4.49,2.13-6.7a138.93,138.93,0,1,1,243.27,127.5c-.11.34-.26.68-.38,1l-8.18,11.73c-14.12,20.21-9.59,48.64,10.09,63.14L1199,776.55a43.17,43.17,0,0,0,56.67-4.72l1.14.88a43.31,43.31,0,0,0,61.42-10.47l59-84.52C1391.37,657.51,1386.77,629.15,1367.09,614.58ZM498,578.12c-6.73-27.71,40.53-46.66,55.49-51.91a7.32,7.32,0,0,1,7.69,1.82l.46.5a3.77,3.77,0,0,1-1.45,6.2C509.14,551.36,498,578.12,498,578.12Zm62.65,121.67L500.43,631.7c-4.15-4.26,3.84-12.48,8.37-7.68l54,74A1.39,1.39,0,0,1,560.64,699.79ZM943.2,249.64H924.36c-161.63,0-248.29,53.39-294.69,111.81.65-1.64,1.22-3.2,1.87-4.76C689.12,210.93,933.8,220.63,933.8,220.63s244.64-9.7,302.22,136.06c.65,1.56,1.22,3.12,1.9,4.76C1191.53,303,1104.87,249.64,943.2,249.64Zm362.62,278.89.46-.5a7.3,7.3,0,0,1,7.68-1.82c15,5.25,62.23,24.2,55.49,51.91,0,0-11.15-26.76-62.18-43.39A3.79,3.79,0,0,1,1305.82,528.53Zm63.52,103.17-60.25,68.09A1.39,1.39,0,0,1,1307,698l54-74C1365.46,619.22,1373.45,627.44,1369.34,631.7Z" transform="translate(-482.11 -152.93)"/><circle cx="587.75" cy="460.81" r="47.57"/><circle cx="315.63" cy="458.91" r="47.57"/></svg>